<?xml version="1.0" standalone="no"?>
<!DOCTYPE svg PUBLIC "-//W3C//DTD SVG 20010904//EN"
 "http://www.w3.org/TR/2001/REC-SVG-20010904/DTD/svg10.dtd">
<svg version="1.0" xmlns="http://www.w3.org/2000/svg"
 width="700.000000pt" height="700.000000pt" viewBox="0 0 700.000000 700.000000"
 preserveAspectRatio="xMidYMid meet">
<metadata>
Created by potrace 1.11, written by Peter Selinger 2001-2013
</metadata>
<g transform="translate(0.000000,700.000000) scale(0.100000,-0.100000)"
fill="#000000" stroke="none">
<path d="M3358 5684 c-2 -1 -39 -5 -83 -9 -128 -11 -320 -52 -465 -101 -482
-160 -898 -489 -1169 -921 -28 -46 -51 -85 -51 -87 0 -3 -13 -27 -28 -53 -48
-81 -123 -272 -163 -410 -62 -216 -83 -370 -83 -603 0 -215 16 -351 69 -555
38 -151 126 -377 182 -467 13 -21 23 -40 23 -43 0 -16 127 -205 200 -299 185
-236 461 -458 742 -597 182 -89 440 -174 592 -194 27 -3 52 -8 55 -9 15 -9
199 -20 321 -20 141 0 255 8 337 23 26 5 67 12 90 16 70 10 272 70 373 110
509 202 922 583 1164 1073 29 59 55 116 59 127 3 11 18 52 32 90 30 77 72 221
81 275 3 19 8 38 9 41 2 3 7 28 10 55 4 27 8 56 10 64 27 102 25 484 -5 649
-5 31 -12 70 -15 88 -39 235 -173 559 -323 782 -223 331 -505 579 -857 751
-243 119 -425 173 -730 215 -46 7 -372 15 -377 9z"/>
</g>
</svg>
