<svg id="Layer_1" data-name="Layer 1" xmlns="http://www.w3.org/2000/svg" viewBox="0 0 400 400"><defs><style>.cls-1{fill:#010101;}</style></defs><title>icon</title><path class="cls-1" d="M200,40A160,160,0,0,1,313.14,313.14,160,160,0,0,1,86.86,86.86,159,159,0,0,1,200,40m0-40C89.54,0,0,89.54,0,200S89.54,400,200,400s200-89.54,200-200S310.46,0,200,0Z"/><path class="cls-1" d="M228.28,327.28l35.36-35.36,20.2,20.21a141,141,0,0,0,28.29-28.29l-20.21-20.2,35.36-35.36,8,8a140.77,140.77,0,0,0,0-72.52l-8,8-35.36-35.36,20.21-20.2a141,141,0,0,0-28.29-28.29l-20.2,20.21L228.28,72.72l8-8a140.77,140.77,0,0,0-72.52,0l8,8-35.36,35.36-20.2-20.21a141,141,0,0,0-28.29,28.29l20.21,20.2L72.72,171.72l-8-8a140.77,140.77,0,0,0,0,72.52l8-8,35.36,35.36-20.21,20.2a141,141,0,0,0,28.29,28.29l20.2-20.21,35.36,35.36-8,8a140.77,140.77,0,0,0,72.52,0ZM299,200l-35.35,35.36L228.28,200l35.36-35.36Zm-99-99,35.36,35.35L200,171.72l-35.36-35.36Zm-99,99,35.35-35.36L171.72,200l-35.36,35.36Zm63.63,63.64L200,228.28l35.36,35.36L200,299Z"/></svg>