<?xml version="1.0" encoding="utf-8"?>
<!-- Generator: Adobe Illustrator 23.0.3, SVG Export Plug-In . SVG Version: 6.00 Build 0)  -->
<svg version="1.1" id="Layer_1" xmlns="http://www.w3.org/2000/svg" xmlns:xlink="http://www.w3.org/1999/xlink" x="0px" y="0px"
	 width="400px" height="400px" viewBox="0 0 400 400" style="enable-background:new 0 0 400 400;" xml:space="preserve">
<style type="text/css">
	.st0{fill:#FAF285;}
	.st1{fill:#010101;}
</style>
<title>icon</title>
<path class="st0" d="M200,40c88.4,0,160,71.6,160,160c0,42.4-16.9,83.1-46.9,113.1c-62.5,62.5-163.8,62.5-226.3,0
	s-62.5-163.8,0-226.3C116.8,56.8,157.5,39.9,200,40 M200,0C89.5,0,0,89.5,0,200s89.5,200,200,200s200-89.5,200-200S310.5,0,200,0z"
	/>
<path class="st1" d="M228.3,327.3l35.4-35.4l20.2,20.2c10.7-8,20.3-17.6,28.3-28.3l-20.2-20.2l35.4-35.4l8,8
	c6.3-23.8,6.3-48.8,0-72.5l-8,8l-35.4-35.4l20.2-20.2c-8-10.7-17.6-20.3-28.3-28.3l-20.2,20.2l-35.4-35.4l8-8
	c-23.8-6.3-48.8-6.3-72.5,0l8,8l-35.4,35.4l-20.2-20.2c-10.7,8-20.3,17.6-28.3,28.3l20.2,20.2l-35.4,35.4l-8-8
	c-6.3,23.8-6.3,48.8,0,72.5l8-8l35.4,35.4l-20.2,20.2c8,10.7,17.6,20.3,28.3,28.3l20.2-20.2l35.4,35.4l-8,8
	c23.8,6.3,48.8,6.3,72.5,0L228.3,327.3z M299,200l-35.4,35.4L228.3,200l35.4-35.4L299,200z M200,101l35.4,35.4L200,171.7l-35.4-35.4
	L200,101z M101,200l35.4-35.4l35.4,35.4l-35.4,35.4L101,200z M164.6,263.6l35.4-35.4l35.4,35.4L200,299L164.6,263.6z"/>
</svg>
